<?xml version="1.0" encoding="UTF-8" standalone="no"?>
<!-- Created with Inkscape (http://www.inkscape.org/) -->

<svg
   width="210mm"
   height="297mm"
   viewBox="0 0 210 297"
   version="1.1"
   id="svg1"
   inkscape:version="1.4 (86a8ad7, 2024-10-11)"
   sodipodi:docname="drawing.svg"
   xmlns:inkscape="http://www.inkscape.org/namespaces/inkscape"
   xmlns:sodipodi="http://sodipodi.sourceforge.net/DTD/sodipodi-0.dtd"
   xmlns:xlink="http://www.w3.org/1999/xlink"
   xmlns="http://www.w3.org/2000/svg"
   xmlns:svg="http://www.w3.org/2000/svg">
  <sodipodi:namedview
     id="namedview1"
     pagecolor="#505050"
     bordercolor="#eeeeee"
     borderopacity="1"
     inkscape:showpageshadow="0"
     inkscape:pageopacity="0"
     inkscape:pagecheckerboard="0"
     inkscape:deskcolor="#505050"
     inkscape:document-units="mm"
     inkscape:zoom="0.17772517"
     inkscape:cx="4844.5586"
     inkscape:cy="7961.7311"
     inkscape:window-width="1920"
     inkscape:window-height="991"
     inkscape:window-x="-9"
     inkscape:window-y="-9"
     inkscape:window-maximized="1"
     inkscape:current-layer="layer1" />
  <defs
     id="defs1">
    <linearGradient
       id="linearGradient11"
       inkscape:collect="always">
      <stop
         style="stop-color:#ffffff;stop-opacity:1;"
         offset="0"
         id="stop11" />
      <stop
         style="stop-color:#df9b9b;stop-opacity:1;"
         offset="1"
         id="stop12" />
    </linearGradient>
    <linearGradient
       inkscape:collect="always"
       xlink:href="#linearGradient11"
       id="linearGradient12"
       x1="1392.6992"
       y1="154.45488"
       x2="1473.4623"
       y2="154.45488"
       gradientUnits="userSpaceOnUse"
       gradientTransform="matrix(1.1929825,0,0,1.1929825,67.684612,137.30194)" />
    <linearGradient
       inkscape:collect="always"
       xlink:href="#linearGradient11"
       id="linearGradient13"
       gradientUnits="userSpaceOnUse"
       x1="1392.6992"
       y1="154.45488"
       x2="1473.4623"
       y2="154.45488"
       gradientTransform="translate(-3476.9096,570.18046)" />
    <linearGradient
       inkscape:collect="always"
       xlink:href="#linearGradient11"
       id="linearGradient14"
       gradientUnits="userSpaceOnUse"
       gradientTransform="matrix(0.73099415,0,0,0.73099415,390.27586,867.78988)"
       x1="1392.6992"
       y1="154.45488"
       x2="1473.4623"
       y2="154.45488" />
    <linearGradient
       inkscape:collect="always"
       xlink:href="#linearGradient11"
       id="linearGradient15"
       gradientUnits="userSpaceOnUse"
       gradientTransform="matrix(0.9122807,0,0,0.9122807,57.407258,377.16898)"
       x1="1392.6992"
       y1="154.45488"
       x2="1473.4623"
       y2="154.45488" />
    <linearGradient
       inkscape:collect="always"
       xlink:href="#linearGradient11"
       id="linearGradient16"
       gradientUnits="userSpaceOnUse"
       gradientTransform="matrix(0.73099415,0,0,0.73099415,1009.5841,1123.85)"
       x1="1392.6992"
       y1="154.45488"
       x2="1473.4623"
       y2="154.45488" />
    <linearGradient
       inkscape:collect="always"
       xlink:href="#linearGradient11"
       id="linearGradient17"
       gradientUnits="userSpaceOnUse"
       gradientTransform="matrix(1.1929825,0,0,1.1929825,-265.78907,1237.4674)"
       x1="1392.6992"
       y1="154.45488"
       x2="1473.4623"
       y2="154.45488" />
    <linearGradient
       inkscape:collect="always"
       xlink:href="#linearGradient11"
       id="linearGradient18"
       gradientUnits="userSpaceOnUse"
       gradientTransform="matrix(1.1929825,0,0,1.1929825,325.23349,1838.911)"
       x1="1392.6992"
       y1="154.45488"
       x2="1473.4623"
       y2="154.45488" />
    <linearGradient
       inkscape:collect="always"
       xlink:href="#linearGradient11"
       id="linearGradient19"
       gradientUnits="userSpaceOnUse"
       gradientTransform="matrix(0.73099415,0,0,0.73099415,763.94502,1646.3913)"
       x1="1392.6992"
       y1="154.45488"
       x2="1473.4623"
       y2="154.45488" />
    <linearGradient
       inkscape:collect="always"
       xlink:href="#linearGradient11"
       id="linearGradient20"
       gradientUnits="userSpaceOnUse"
       gradientTransform="translate(-2965.9329,2129.3066)"
       x1="1392.6992"
       y1="154.45488"
       x2="1473.4623"
       y2="154.45488" />
    <linearGradient
       inkscape:collect="always"
       xlink:href="#linearGradient11"
       id="linearGradient21"
       gradientUnits="userSpaceOnUse"
       gradientTransform="translate(-3488.4742,2480.6449)"
       x1="1392.6992"
       y1="154.45488"
       x2="1473.4623"
       y2="154.45488" />
  </defs>
  <g
     inkscape:label="Layer 1"
     inkscape:groupmode="layer"
     id="layer1">
    <circle
       style="opacity:0.46191646;fill:none;stroke:#d3a3a3;stroke-width:30;stroke-linecap:round;stroke-linejoin:round;stroke-dasharray:none;stroke-opacity:1"
       id="path2"
       cx="150.73308"
       cy="109.79323"
       r="42.478432"
       inkscape:export-filename="path2.png"
       inkscape:export-xdpi="96"
       inkscape:export-ydpi="96" />
    <circle
       style="opacity:0.461916;fill:none;stroke:#d3a3a3;stroke-width:21.6952;stroke-linecap:round;stroke-linejoin:round;stroke-dasharray:none;stroke-opacity:1"
       id="circle2"
       cx="153.43056"
       cy="219.30649"
       r="30.719286"
       inkscape:export-filename="circle2.png"
       inkscape:export-xdpi="96"
       inkscape:export-ydpi="96" />
    <circle
       style="opacity:0.461916;fill:none;stroke:#d3a3a3;stroke-width:12.7798;stroke-linecap:round;stroke-linejoin:round;stroke-dasharray:none;stroke-opacity:1"
       id="circle3"
       cx="220.19977"
       cy="255.45151"
       r="18.095528"
       inkscape:export-filename="circle3.png"
       inkscape:export-xdpi="96"
       inkscape:export-ydpi="96" />
    <path
       sodipodi:type="spiral"
       style="fill:none;fill-rule:evenodd;stroke:#000000;stroke-width:0.264583"
       id="path5"
       sodipodi:cx="384.83459"
       sodipodi:cy="81.507515"
       sodipodi:expansion="1"
       sodipodi:revolution="3"
       sodipodi:radius="43.436821"
       sodipodi:argument="-18.633675"
       sodipodi:t0="0"
       d="m 384.83459,81.507515 c 2.12731,0.466514 0.42069,3.097721 -0.77537,3.535714 -3.24125,1.186934 -6.02482,-2.155858 -6.29605,-5.086469 -0.48517,-5.242176 4.50765,-9.089524 9.39756,-9.056386 7.17614,0.04863 12.21357,6.879968 11.81672,13.708651 -0.52894,9.10156 -9.25808,15.361021 -18.01974,14.577059 -11.02566,-0.986536 -18.52019,-11.638592 -17.3374,-22.330834 1.43252,-12.949738 14.02038,-21.686067 26.64193,-20.097731 14.87405,1.871798 24.85615,16.402953 22.85806,30.953016 -2.30686,16.798625 -18.78605,28.029045 -35.2641,25.618405 -18.72342,-2.73912 -31.2039,-21.169522 -28.37874,-39.5752 3.1694,-20.64839 23.55326,-34.380183 43.88629,-31.139076 22.57351,3.598243 37.55754,25.937215 33.89941,48.197381" />
    <path
       sodipodi:type="star"
       style="opacity:0.461916;fill:none;stroke:#d3a3a3;stroke-width:30;stroke-linecap:round;stroke-linejoin:round;stroke-dasharray:none;stroke-opacity:1"
       id="path6"
       inkscape:flatsided="false"
       sodipodi:sides="5"
       sodipodi:cx="502.81579"
       sodipodi:cy="150.3609"
       sodipodi:r1="29.09918"
       sodipodi:r2="14.54959"
       sodipodi:arg1="-1.2045408"
       sodipodi:arg2="-0.57622224"
       inkscape:rounded="0"
       inkscape:randomized="0"
       d="m 513.23685,123.19173 1.77917,19.24168 16.85948,9.44276 -17.75014,7.6381 -3.77073,18.95229 -12.74936,-14.52107 -19.18992,2.27039 9.8706,-16.61262 -8.08929,-17.5491 18.84972,4.25391 z"
       inkscape:transform-center-x="-2.3296267"
       inkscape:transform-center-y="0.46824537" />
    <path
       sodipodi:type="star"
       style="opacity:0.461916;fill:none;stroke:#d3a3a3;stroke-width:30;stroke-linecap:round;stroke-linejoin:round;stroke-dasharray:none;stroke-opacity:1"
       id="path7"
       inkscape:flatsided="true"
       sodipodi:sides="5"
       sodipodi:cx="368.45865"
       sodipodi:cy="205.81579"
       sodipodi:r1="16.644416"
       sodipodi:r2="13.465615"
       sodipodi:arg1="2.677945"
       sodipodi:arg2="3.3062636"
       inkscape:rounded="0"
       inkscape:randomized="0"
       d="m 353.57143,213.25941 3.20752,-19.302 19.34847,-2.91411 8.75049,17.50098 -13.94037,13.7303 z"
       inkscape:transform-center-x="-0.76601898"
       inkscape:transform-center-y="0.843147" />
    <path
       style="opacity:0.461916;fill:none;stroke:#d3a3a3;stroke-width:30;stroke-linecap:round;stroke-linejoin:round;stroke-dasharray:none;stroke-opacity:1"
       id="path8"
       sodipodi:type="arc"
       sodipodi:cx="661.55078"
       sodipodi:cy="179.20488"
       sodipodi:rx="53.407894"
       sodipodi:ry="53.407894"
       sodipodi:start="0"
       sodipodi:end="3.9564729"
       sodipodi:open="true"
       sodipodi:arc-type="arc"
       d="m 714.95868,179.20488 a 53.407894,53.407894 0 0 1 -40.09255,51.72141 53.407894,53.407894 0 0 1 -60.08383,-25.93164 53.407894,53.407894 0 0 1 10.13304,-64.65168" />
    <path
       style="opacity:0.461916;fill:none;stroke:#d3a3a3;stroke-width:21.2587;stroke-linecap:round;stroke-linejoin:round;stroke-dasharray:none;stroke-opacity:1"
       id="path9"
       sodipodi:type="arc"
       sodipodi:cx="1057.0194"
       sodipodi:cy="191.65295"
       sodipodi:rx="59.472347"
       sodipodi:ry="59.472347"
       sodipodi:start="0"
       sodipodi:end="3.9564729"
       sodipodi:open="true"
       sodipodi:arc-type="arc"
       d="m 1116.4918,191.65295 a 59.472347,59.472347 0 0 1 -44.6451,57.59437 59.472347,59.472347 0 0 1 -66.9063,-28.87618 59.472347,59.472347 0 0 1 11.2836,-71.99285"
       inkscape:export-filename="path9.png"
       inkscape:export-xdpi="96"
       inkscape:export-ydpi="96" />
    <path
       style="opacity:0.461916;fill:none;stroke:#d3a3a3;stroke-width:21.2587;stroke-linecap:round;stroke-linejoin:round;stroke-dasharray:none;stroke-opacity:1"
       id="path10"
       sodipodi:type="arc"
       sodipodi:cx="1105.4028"
       sodipodi:cy="-165.04749"
       sodipodi:rx="59.472347"
       sodipodi:ry="59.472347"
       sodipodi:start="0"
       sodipodi:end="3.9564729"
       sodipodi:open="true"
       sodipodi:arc-type="arc"
       d="m 1164.8752,-165.04749 a 59.472347,59.472347 0 0 1 -44.6451,57.59437 59.472347,59.472347 0 0 1 -66.9063,-28.87618 59.472347,59.472347 0 0 1 11.2836,-71.99285"
       transform="scale(1,-1)" />
    <path
       style="opacity:1;fill:url(#linearGradient12);fill-opacity:0.462745;stroke:none;stroke-width:35.7895;stroke-linecap:round;stroke-linejoin:round;stroke-dasharray:none;stroke-opacity:1"
       id="path11"
       sodipodi:type="arc"
       sodipodi:cx="1805.0752"
       sodipodi:cy="321.5639"
       sodipodi:rx="75.924812"
       sodipodi:ry="75.924812"
       sodipodi:start="5.7595865"
       sodipodi:end="5.7563346"
       sodipodi:open="true"
       sodipodi:arc-type="arc"
       d="m 1870.828,283.6015 a 75.924812,75.924812 0 0 1 -27.737,103.68433 75.924812,75.924812 0 0 1 -103.7068,-27.65266 75.924812,75.924812 0 0 1 27.5683,-103.7293 75.924812,75.924812 0 0 1 103.7517,27.48401"
       inkscape:export-filename="path11.png"
       inkscape:export-xdpi="96"
       inkscape:export-ydpi="96" />
    <path
       style="opacity:1;fill:url(#linearGradient13);fill-opacity:0.462745;stroke:none;stroke-width:30;stroke-linecap:round;stroke-linejoin:round;stroke-dasharray:none;stroke-opacity:1"
       id="path12"
       sodipodi:type="arc"
       sodipodi:cx="-2020.5675"
       sodipodi:cy="724.63538"
       sodipodi:rx="63.642857"
       sodipodi:ry="63.642857"
       sodipodi:start="5.7595865"
       sodipodi:end="5.7563346"
       sodipodi:open="true"
       sodipodi:arc-type="arc"
       d="m -1965.4512,692.81395 a 63.642857,63.642857 0 0 1 -23.2501,86.91187 63.642857,63.642857 0 0 1 -86.9307,-23.17944 63.642857,63.642857 0 0 1 23.1087,-86.94956 63.642857,63.642857 0 0 1 86.9684,23.03806"
       inkscape:export-filename="path11.png"
       inkscape:export-xdpi="96"
       inkscape:export-ydpi="96"
       transform="scale(-1,1)" />
    <path
       style="opacity:1;fill:url(#linearGradient14);fill-opacity:0.462745;stroke:none;stroke-width:21.9298;stroke-linecap:round;stroke-linejoin:round;stroke-dasharray:none;stroke-opacity:1"
       id="path13"
       sodipodi:type="arc"
       sodipodi:cx="1454.8531"
       sodipodi:cy="980.69556"
       sodipodi:rx="46.522556"
       sodipodi:ry="46.522556"
       sodipodi:start="5.7595865"
       sodipodi:end="5.7563346"
       sodipodi:open="true"
       sodipodi:arc-type="arc"
       d="m 1495.1429,957.43428 a 46.522556,46.522556 0 0 1 -16.9957,63.53202 46.522556,46.522556 0 0 1 -63.5459,-16.944 46.522556,46.522556 0 0 1 16.8924,-63.55961 46.522556,46.522556 0 0 1 63.5733,16.84069"
       inkscape:export-filename="path11.png"
       inkscape:export-xdpi="96"
       inkscape:export-ydpi="96" />
    <path
       style="opacity:1;fill:url(#linearGradient15);fill-opacity:0.462745;stroke:none;stroke-width:27.3684;stroke-linecap:round;stroke-linejoin:round;stroke-dasharray:none;stroke-opacity:1"
       id="path14"
       sodipodi:type="arc"
       sodipodi:cx="1385.9999"
       sodipodi:cy="518.0752"
       sodipodi:rx="58.06015"
       sodipodi:ry="58.06015"
       sodipodi:start="5.7595865"
       sodipodi:end="5.7563346"
       sodipodi:open="true"
       sodipodi:arc-type="arc"
       d="m 1436.2814,489.04512 a 58.06015,58.06015 0 0 1 -21.2106,79.28802 58.06015,58.06015 0 0 1 -79.3052,-21.14615 58.06015,58.06015 0 0 1 21.0817,-79.32241 58.06015,58.06015 0 0 1 79.3395,21.01718"
       inkscape:export-filename="path11.png"
       inkscape:export-xdpi="96"
       inkscape:export-ydpi="96" />
    <path
       style="opacity:1;fill:url(#linearGradient16);fill-opacity:0.462745;stroke:none;stroke-width:21.9298;stroke-linecap:round;stroke-linejoin:round;stroke-dasharray:none;stroke-opacity:1"
       id="path15"
       sodipodi:type="arc"
       sodipodi:cx="2074.1614"
       sodipodi:cy="1236.7557"
       sodipodi:rx="46.522556"
       sodipodi:ry="46.522556"
       sodipodi:start="5.7595865"
       sodipodi:end="5.7563346"
       sodipodi:open="true"
       sodipodi:arc-type="arc"
       d="m 2114.4511,1213.4945 a 46.522556,46.522556 0 0 1 -16.9957,63.532 46.522556,46.522556 0 0 1 -63.5459,-16.944 46.522556,46.522556 0 0 1 16.8924,-63.5596 46.522556,46.522556 0 0 1 63.5733,16.8407"
       inkscape:export-filename="path11.png"
       inkscape:export-xdpi="96"
       inkscape:export-ydpi="96" />
    <path
       style="opacity:1;fill:url(#linearGradient17);fill-opacity:0.462745;stroke:none;stroke-width:35.7895;stroke-linecap:round;stroke-linejoin:round;stroke-dasharray:none;stroke-opacity:1"
       id="path16"
       sodipodi:type="arc"
       sodipodi:cx="1471.6014"
       sodipodi:cy="1421.7292"
       sodipodi:rx="75.924812"
       sodipodi:ry="75.924812"
       sodipodi:start="5.7595865"
       sodipodi:end="5.7563346"
       sodipodi:open="true"
       sodipodi:arc-type="arc"
       d="m 1537.3543,1383.7668 a 75.924812,75.924812 0 0 1 -27.737,103.6844 75.924812,75.924812 0 0 1 -103.7069,-27.6527 75.924812,75.924812 0 0 1 27.5684,-103.7293 75.924812,75.924812 0 0 1 103.7517,27.484"
       inkscape:export-filename="path11.png"
       inkscape:export-xdpi="96"
       inkscape:export-ydpi="96" />
    <path
       style="opacity:1;fill:url(#linearGradient18);fill-opacity:0.462745;stroke:none;stroke-width:35.7895;stroke-linecap:round;stroke-linejoin:round;stroke-dasharray:none;stroke-opacity:1"
       id="path17"
       sodipodi:type="arc"
       sodipodi:cx="2062.624"
       sodipodi:cy="2023.1729"
       sodipodi:rx="75.924812"
       sodipodi:ry="75.924812"
       sodipodi:start="5.7595865"
       sodipodi:end="5.7563346"
       sodipodi:open="true"
       sodipodi:arc-type="arc"
       d="m 2128.3768,1985.2104 a 75.924812,75.924812 0 0 1 -27.7369,103.6844 75.924812,75.924812 0 0 1 -103.7069,-27.6527 75.924812,75.924812 0 0 1 27.5684,-103.7293 75.924812,75.924812 0 0 1 103.7516,27.484"
       inkscape:export-filename="path11.png"
       inkscape:export-xdpi="96"
       inkscape:export-ydpi="96" />
    <path
       style="opacity:1;fill:url(#linearGradient19);fill-opacity:0.462745;stroke:none;stroke-width:21.9298;stroke-linecap:round;stroke-linejoin:round;stroke-dasharray:none;stroke-opacity:1"
       id="path18"
       sodipodi:type="arc"
       sodipodi:cx="1828.5223"
       sodipodi:cy="1759.2971"
       sodipodi:rx="46.522556"
       sodipodi:ry="46.522556"
       sodipodi:start="5.7595865"
       sodipodi:end="5.7563346"
       sodipodi:open="true"
       sodipodi:arc-type="arc"
       d="m 1868.8121,1736.0358 a 46.522556,46.522556 0 0 1 -16.9957,63.5321 46.522556,46.522556 0 0 1 -63.5459,-16.944 46.522556,46.522556 0 0 1 16.8924,-63.5596 46.522556,46.522556 0 0 1 63.5733,16.8406"
       inkscape:export-filename="path11.png"
       inkscape:export-xdpi="96"
       inkscape:export-ydpi="96" />
    <path
       style="fill:url(#linearGradient20);fill-opacity:0.462745;stroke:none;stroke-width:30;stroke-linecap:round;stroke-linejoin:round;stroke-dasharray:none;stroke-opacity:1"
       id="path19"
       sodipodi:type="arc"
       sodipodi:cx="-1509.5908"
       sodipodi:cy="2283.7615"
       sodipodi:rx="63.642857"
       sodipodi:ry="63.642857"
       sodipodi:start="5.7595865"
       sodipodi:end="5.7563346"
       sodipodi:open="true"
       sodipodi:arc-type="arc"
       d="m -1454.4745,2251.94 a 63.642857,63.642857 0 0 1 -23.2501,86.9119 63.642857,63.642857 0 0 1 -86.9307,-23.1794 63.642857,63.642857 0 0 1 23.1087,-86.9496 63.642857,63.642857 0 0 1 86.9683,23.0381"
       inkscape:export-filename="path11.png"
       inkscape:export-xdpi="96"
       inkscape:export-ydpi="96"
       transform="scale(-1,1)" />
    <path
       style="fill:url(#linearGradient21);fill-opacity:0.462745;stroke:none;stroke-width:30;stroke-linecap:round;stroke-linejoin:round;stroke-dasharray:none;stroke-opacity:1"
       id="path20"
       sodipodi:type="arc"
       sodipodi:cx="-2032.1322"
       sodipodi:cy="2635.0999"
       sodipodi:rx="63.642857"
       sodipodi:ry="63.642857"
       sodipodi:start="5.7595865"
       sodipodi:end="5.7563346"
       sodipodi:open="true"
       sodipodi:arc-type="arc"
       d="m -1977.0159,2603.2784 a 63.642857,63.642857 0 0 1 -23.2501,86.9119 63.642857,63.642857 0 0 1 -86.9307,-23.1794 63.642857,63.642857 0 0 1 23.1087,-86.9496 63.642857,63.642857 0 0 1 86.9684,23.0381"
       inkscape:export-filename="path11.png"
       inkscape:export-xdpi="96"
       inkscape:export-ydpi="96"
       transform="scale(-1,1)" />
  </g>
</svg>
